<?xml version="1.0" encoding="UTF-8"?>
<svg enable-background="new 0 0 128 128" version="1.1" viewBox="0 0 128 128" xml:space="preserve" xmlns="http://www.w3.org/2000/svg"><defs><mask id="a" maskUnits="userSpaceOnUse"><path d="m-1-1h130v130h-130z" fill="#fff"/><g transform="matrix(.13649 0 0 .13649 29.06 29.061)"><path d="m444.8 76.8c-6.8-9-19.7-10.9-28.8-4.2s-11 19.4-4.2 28.4c64.8 85.9 64.8 225.6 0 311.5-6.8 9-5.1 21.9 4.2 28.4 11.4 7.9 24.8 1.2 28.8-4.2 74.9-99.1 74.9-260.6 0-359.9z" color="#000000" style="-inkscape-stroke:none"/><path d="m394.7 143.2c-6.8-9-19.7-10.8-28.8-4.2-9.1 6.7-11 19.4-4.2 28.4 36.6 48.4 36.6 130.3 0 178.7-6.8 9-5 21.8 4.2 28.4 11.7 8.3 24.8 1.2 28.8-4.2 48.1-63.6 48.1-163.4 0-227.1z" color="#000000" style="-inkscape-stroke:none"/><path d="m291.9 438.3-144.2-112.4v-138.2l144.2-112.3zm-185.4-122.8h-54.3v-117.7h54.3zm194.7-300.2-180.1 141.9h-89.5c-11.4 0-20.6 9.1-20.6 20.3v158.2c0 11.2 9.2 20.3 20.6 20.3h91.2l178.4 140.7c12.8 10.1 31.9 1.1 31.9-15.1v-451.2c0-16.2-19-25.3-31.9-15.1z" color="#000000" style="-inkscape-stroke:none"/></g></mask></defs><style type="text/css">
	.st0{fill:#FFFFFF;}
</style><path d="m64 0a64 64 0 0 0-64 64 64 64 0 0 0 64 64 64 64 0 0 0 64-64 64 64 0 0 0-64-64zm-4.2363 1.7832h8.4727v24.746h-8.4727v-24.746zm-25.256 85.719 5.9902 5.9902-17.496 17.496-5.9902-5.9902 17.496-17.496zm58.984 0 17.496 17.496-5.9902 5.9902-17.496-17.496 5.9902-5.9902z" mask="url(#a)"/></svg>
