<?xml version="1.0" encoding="utf-8"?>
<!-- Svg Vector Icons : http://www.onlinewebfonts.com/icon -->
<!DOCTYPE svg PUBLIC "-//W3C//DTD SVG 1.1//EN" "http://www.w3.org/Graphics/SVG/1.1/DTD/svg11.dtd">
<svg version="1.1" xmlns="http://www.w3.org/2000/svg" xmlns:xlink="http://www.w3.org/1999/xlink" x="0px" y="0px" viewBox="0 0 1000 1000" enable-background="new 0 0 1000 1000" xml:space="preserve">
<metadata> Svg Vector Icons : http://www.onlinewebfonts.com/icon </metadata>
<g><g><g id="c134_player"><path d="M500,10C229.3,10,10,229.4,10,500c0,270.6,219.3,490,490,490c270.6,0,490-219.3,490-490C990,229.4,770.5,10,500,10z M725.8,773c0,7.2-4.5,12.9-10.1,12.9H630c-5.6,0-10.2-5.7-10.2-12.9V544.2L315.5,784.3c-2.2,1.7-5.2,2.7-8,2.7l-5.7-1.3c-4.5-2-7.2-6.7-7.2-11.5V226c0-5,2.7-9.6,7.2-11.7c4.5-2.2,9.8-1.6,13.7,1.4l304.3,240V226.9c0-6.9,4.6-12.8,10.2-12.8h85.7c5.6,0,10.1,5.9,10.1,12.8L725.8,773L725.8,773z"/></g><g id="Capa_1_75_"></g></g><g></g><g></g><g></g><g></g><g></g><g></g><g></g><g></g><g></g><g></g><g></g><g></g><g></g><g></g><g></g></g>
</svg>