<?xml version="1.0" encoding="utf-8"?>
<!-- Svg Vector Icons : http://www.onlinewebfonts.com/icon -->
<!DOCTYPE svg PUBLIC "-//W3C//DTD SVG 1.1//EN" "http://www.w3.org/Graphics/SVG/1.1/DTD/svg11.dtd">
<svg version="1.1" xmlns="http://www.w3.org/2000/svg" xmlns:xlink="http://www.w3.org/1999/xlink" x="0px" y="0px" viewBox="0 0 1000 1000" enable-background="new 0 0 1000 1000" xml:space="preserve">
<metadata> Svg Vector Icons : http://www.onlinewebfonts.com/icon </metadata>
<g><g><g id="c133_player"><path d="M500,10C229.3,10,10,229.4,10,500c0,270.6,219.3,490,490,490c270.6,0,490-219.4,490-490C990,229.4,770.6,10,500,10z M741.1,774.1c0,5-2.8,9.5-7.2,11.6l-5.7,1.3c-2.8,0-5.7-1-8-2.7L415.9,544.2V773c0,7.1-4.6,13-10.2,13H320c-5.5,0-10.1-5.9-10.1-13V226.9c0-7,4.6-12.9,10.1-12.9h85.7c5.6,0,10.2,5.8,10.2,12.9v228.8l304.3-240c3.9-3,9.1-3.7,13.7-1.4c4.5,2.1,7.2,6.6,7.2,11.7C741.1,226,741.1,774.1,741.1,774.1z"/></g></g><g></g><g></g><g></g><g></g><g></g><g></g><g></g><g></g><g></g><g></g><g></g><g></g><g></g><g></g><g></g></g>
</svg>